<?xml version="1.0" encoding="iso-8859-1"?>
<!-- Uploaded to: SVG Repo, www.svgrepo.com, Generator: SVG Repo Mixer Tools -->
<svg fill="#000000" height="800px" width="800px" version="1.1" id="Layer_1" xmlns="http://www.w3.org/2000/svg" xmlns:xlink="http://www.w3.org/1999/xlink" 
	 viewBox="0 0 512 512" xml:space="preserve">
<g>
	<g>
		<g>
			<path d="M256,26.947c4.466,0,8.084-3.62,8.084-8.084V8.084C264.084,3.62,260.466,0,256,0c-4.466,0-8.084,3.62-8.084,8.084v10.779
				C247.916,23.328,251.534,26.947,256,26.947z"/>
			<path d="M256,485.053c-4.466,0-8.084,3.62-8.084,8.084v10.779c0,4.465,3.619,8.084,8.084,8.084c4.466,0,8.084-3.62,8.084-8.084
				v-10.779C264.084,488.672,260.466,485.053,256,485.053z"/>
			<path d="M82.601,417.964l-7.622,7.622c-3.157,3.156-3.157,8.275,0,11.432c1.579,1.579,3.649,2.368,5.717,2.368
				s4.138-0.79,5.717-2.368l7.622-7.622c3.157-3.156,3.157-8.275,0-11.432C90.878,414.808,85.761,414.808,82.601,417.964z"/>
			<path d="M82.601,94.034c1.579,1.579,3.649,2.368,5.717,2.368c2.068,0,4.138-0.79,5.717-2.368c3.157-3.156,3.157-8.275,0-11.432
				l-7.622-7.622c-3.157-3.157-8.275-3.157-11.433,0c-3.157,3.156-3.157,8.275,0,11.432L82.601,94.034z"/>
			<path d="M423.681,96.404c2.068,0,4.138-0.79,5.717-2.368l7.622-7.622c3.157-3.156,3.157-8.275,0-11.432
				c-3.157-3.157-8.275-3.157-11.433,0l-7.622,7.622c-3.157,3.156-3.157,8.275,0,11.432
				C419.544,95.614,421.612,96.404,423.681,96.404z"/>
			<path d="M429.397,417.966c-3.157-3.157-8.275-3.157-11.433,0c-3.157,3.156-3.157,8.275,0,11.432l7.622,7.622
				c1.579,1.579,3.649,2.368,5.717,2.368c2.068,0,4.138-0.79,5.717-2.368c3.157-3.156,3.157-8.275,0-11.432L429.397,417.966z"/>
			<path d="M460.8,204.8h-9.248c-10.849-41.46-35.035-78.928-68.594-106.056C347.181,69.823,302.093,53.895,256,53.895
				c-46.093,0-91.181,15.928-126.958,44.849C95.483,125.872,71.298,163.34,60.448,204.8H51.2C22.969,204.8,0,227.769,0,256
				s22.969,51.2,51.2,51.2h9.248c10.849,41.46,35.035,78.928,68.594,106.056c35.776,28.921,80.865,44.849,126.958,44.849
				c46.093,0,91.181-15.928,126.958-44.849c33.559-27.128,57.744-64.596,68.594-106.056h9.248c28.231,0,51.2-22.969,51.2-51.2
				S489.031,204.8,460.8,204.8z M460.8,291.032h-15.595c-3.776,0-7.048,2.613-7.884,6.295
				c-19.32,85.145-93.882,144.61-181.321,144.61S93.999,382.472,74.679,297.326c-0.835-3.682-4.109-6.295-7.884-6.295H51.2
				c-19.317,0-35.032-15.716-35.032-35.032s15.715-35.032,35.032-35.032h15.595c3.776,0,7.048-2.613,7.884-6.295
				C93.999,129.528,168.561,70.063,256,70.063s162.001,59.465,181.321,144.61c0.835,3.682,4.109,6.295,7.884,6.295H460.8
				c19.317,0,35.032,15.716,35.032,35.032S480.117,291.032,460.8,291.032z"/>
			<path d="M331.453,129.347c-10.67,0-20.586,3.285-28.797,8.892c-14.845-5.896-30.514-8.892-46.656-8.892
				c-69.837,0-126.653,56.816-126.653,126.653S186.163,382.653,256,382.653S382.653,325.837,382.653,256
				c0-16.14-2.995-31.811-8.892-46.656c5.606-8.21,8.892-18.126,8.892-28.797C382.653,152.316,359.684,129.347,331.453,129.347z
				 M256,366.484c-60.921,0-110.484-49.563-110.484-110.484S195.079,145.516,256,145.516c11.616,0,22.951,1.77,33.828,5.274
				c-6.018,8.394-9.575,18.665-9.575,29.757c0,28.231,22.969,51.2,51.2,51.2c11.093,0,21.364-3.557,29.757-9.575
				c3.504,10.877,5.274,22.211,5.274,33.828C366.484,316.922,316.922,366.484,256,366.484z M331.453,215.579
				c-19.317,0-35.032-15.716-35.032-35.032s15.715-35.032,35.032-35.032s35.032,15.716,35.032,35.032
				S350.77,215.579,331.453,215.579z"/>
			<path d="M254.285,199.432c0.07,0,0.142-0.001,0.213-0.002c0.499-0.013,0.999-0.019,1.483-0.019l0.161,0.006
				c0.18,0.006,0.36,0.012,0.541,0.014c4.494,0.069,8.105-3.513,8.167-7.972c0.061-4.459-3.512-8.126-7.971-8.196l-0.158-0.005
				c-0.876-0.031-1.763-0.013-2.641,0.01c-4.464,0.116-7.987,3.828-7.872,8.291C246.322,195.95,249.917,199.433,254.285,199.432z"/>
			<path d="M328.736,255.122c-0.053-4.432-3.662-7.987-8.081-7.987c-0.032,0-0.067,0-0.1,0c-4.464,0.054-8.04,3.717-7.985,8.181
				c0.002,0.182,0.008,0.362,0.014,0.542l0.005,0.142c0,31.204-25.387,56.589-56.589,56.589S199.411,287.204,199.411,256
				c0-18.025,8.292-34.558,22.751-45.363c3.578-2.673,4.309-7.739,1.637-11.316c-2.672-3.575-7.739-4.309-11.315-1.636
				C193.9,211.572,183.242,232.827,183.242,256c0,40.119,32.639,72.758,72.758,72.758s72.758-32.639,72.758-72.758
				c0-0.241-0.008-0.481-0.016-0.72L328.736,255.122z"/>
		</g>
	</g>
</g>
</svg>